<mxfile host="Electron" modified="2024-03-14T13:54:42.279Z" agent="Mozilla/5.0 (Windows NT 10.0; Win64; x64) AppleWebKit/537.36 (KHTML, like Gecko) draw.io/21.5.1 Chrome/112.0.5615.204 Electron/24.6.0 Safari/537.36" etag="Kjf3UWokx3HwqjykjtRP" version="21.5.1" type="device">
  <diagram id="C5RBs43oDa-KdzZeNtuy" name="Page-1">
    <mxGraphModel dx="662" dy="690" grid="1" gridSize="10" guides="1" tooltips="1" connect="1" arrows="1" fold="1" page="1" pageScale="1" pageWidth="827" pageHeight="1169" math="0" shadow="0">
      <root>
        <mxCell id="WIyWlLk6GJQsqaUBKTNV-0" />
        <mxCell id="WIyWlLk6GJQsqaUBKTNV-1" parent="WIyWlLk6GJQsqaUBKTNV-0" />
        <mxCell id="WIyWlLk6GJQsqaUBKTNV-2" value="" style="rounded=0;html=1;jettySize=auto;orthogonalLoop=1;fontSize=11;endArrow=block;endFill=0;endSize=8;strokeWidth=1;shadow=0;labelBackgroundColor=none;edgeStyle=orthogonalEdgeStyle;" parent="WIyWlLk6GJQsqaUBKTNV-1" source="WIyWlLk6GJQsqaUBKTNV-3" edge="1">
          <mxGeometry relative="1" as="geometry">
            <mxPoint x="334" y="285" as="targetPoint" />
          </mxGeometry>
        </mxCell>
        <mxCell id="WIyWlLk6GJQsqaUBKTNV-4" value="Yes" style="rounded=0;html=1;jettySize=auto;orthogonalLoop=1;fontSize=11;endArrow=block;endFill=0;endSize=8;strokeWidth=1;shadow=0;labelBackgroundColor=none;edgeStyle=orthogonalEdgeStyle;" parent="WIyWlLk6GJQsqaUBKTNV-1" target="WIyWlLk6GJQsqaUBKTNV-10" edge="1">
          <mxGeometry y="20" relative="1" as="geometry">
            <mxPoint as="offset" />
            <mxPoint x="334" y="365" as="sourcePoint" />
          </mxGeometry>
        </mxCell>
        <mxCell id="WIyWlLk6GJQsqaUBKTNV-5" value="No" style="edgeStyle=orthogonalEdgeStyle;rounded=0;html=1;jettySize=auto;orthogonalLoop=1;fontSize=11;endArrow=block;endFill=0;endSize=8;strokeWidth=1;shadow=0;labelBackgroundColor=none;" parent="WIyWlLk6GJQsqaUBKTNV-1" target="WIyWlLk6GJQsqaUBKTNV-7" edge="1">
          <mxGeometry y="10" relative="1" as="geometry">
            <mxPoint as="offset" />
            <mxPoint x="384" y="325" as="sourcePoint" />
          </mxGeometry>
        </mxCell>
        <mxCell id="WIyWlLk6GJQsqaUBKTNV-8" value="No" style="rounded=0;html=1;jettySize=auto;orthogonalLoop=1;fontSize=11;endArrow=block;endFill=0;endSize=8;strokeWidth=1;shadow=0;labelBackgroundColor=none;edgeStyle=orthogonalEdgeStyle;" parent="WIyWlLk6GJQsqaUBKTNV-1" target="WIyWlLk6GJQsqaUBKTNV-11" edge="1">
          <mxGeometry x="0.3333" y="20" relative="1" as="geometry">
            <mxPoint as="offset" />
            <mxPoint x="334" y="485" as="sourcePoint" />
          </mxGeometry>
        </mxCell>
        <mxCell id="WIyWlLk6GJQsqaUBKTNV-9" value="Yes" style="edgeStyle=orthogonalEdgeStyle;rounded=0;html=1;jettySize=auto;orthogonalLoop=1;fontSize=11;endArrow=block;endFill=0;endSize=8;strokeWidth=1;shadow=0;labelBackgroundColor=none;" parent="WIyWlLk6GJQsqaUBKTNV-1" target="WIyWlLk6GJQsqaUBKTNV-12" edge="1">
          <mxGeometry y="10" relative="1" as="geometry">
            <mxPoint as="offset" />
            <mxPoint x="384" y="445" as="sourcePoint" />
          </mxGeometry>
        </mxCell>
        <mxCell id="VbQ0kaJk9o8cMGYoq1PI-14" value="User" style="whiteSpace=wrap;html=1;align=center;fillColor=none;" vertex="1" parent="WIyWlLk6GJQsqaUBKTNV-1">
          <mxGeometry x="259" y="365" width="100" height="40" as="geometry" />
        </mxCell>
        <mxCell id="VbQ0kaJk9o8cMGYoq1PI-15" value="Prize" style="whiteSpace=wrap;html=1;align=center;gradientColor=default;fillColor=none;strokeColor=default;" vertex="1" parent="WIyWlLk6GJQsqaUBKTNV-1">
          <mxGeometry x="300" y="524.5" width="100" height="40" as="geometry" />
        </mxCell>
        <mxCell id="VbQ0kaJk9o8cMGYoq1PI-16" value="Raffle" style="whiteSpace=wrap;html=1;align=center;fillColor=none;" vertex="1" parent="WIyWlLk6GJQsqaUBKTNV-1">
          <mxGeometry x="630" y="524.5" width="100" height="40" as="geometry" />
        </mxCell>
        <mxCell id="VbQ0kaJk9o8cMGYoq1PI-17" value="Ticket" style="whiteSpace=wrap;html=1;align=center;fillColor=none;" vertex="1" parent="WIyWlLk6GJQsqaUBKTNV-1">
          <mxGeometry x="489" y="455" width="100" height="40" as="geometry" />
        </mxCell>
        <mxCell id="VbQ0kaJk9o8cMGYoq1PI-18" value="Ticket" style="whiteSpace=wrap;html=1;align=center;fillColor=none;" vertex="1" parent="WIyWlLk6GJQsqaUBKTNV-1">
          <mxGeometry x="560" y="365" width="100" height="40" as="geometry" />
        </mxCell>
        <mxCell id="VbQ0kaJk9o8cMGYoq1PI-27" value="ID_user" style="ellipse;whiteSpace=wrap;html=1;align=center;fillColor=#000000;" vertex="1" parent="WIyWlLk6GJQsqaUBKTNV-1">
          <mxGeometry x="79" y="365" width="100" height="40" as="geometry" />
        </mxCell>
        <mxCell id="VbQ0kaJk9o8cMGYoq1PI-28" value="" style="endArrow=none;html=1;rounded=0;" edge="1" parent="WIyWlLk6GJQsqaUBKTNV-1">
          <mxGeometry relative="1" as="geometry">
            <mxPoint x="179" y="384.5" as="sourcePoint" />
            <mxPoint x="259" y="385" as="targetPoint" />
          </mxGeometry>
        </mxCell>
        <mxCell id="VbQ0kaJk9o8cMGYoq1PI-31" value="Name" style="ellipse;whiteSpace=wrap;html=1;align=center;fillColor=none;" vertex="1" parent="WIyWlLk6GJQsqaUBKTNV-1">
          <mxGeometry x="79" y="422" width="100" height="40" as="geometry" />
        </mxCell>
        <mxCell id="VbQ0kaJk9o8cMGYoq1PI-38" value="" style="endArrow=none;html=1;rounded=0;" edge="1" parent="WIyWlLk6GJQsqaUBKTNV-1">
          <mxGeometry relative="1" as="geometry">
            <mxPoint x="210" y="620" as="sourcePoint" />
            <mxPoint x="210" y="170" as="targetPoint" />
          </mxGeometry>
        </mxCell>
        <mxCell id="VbQ0kaJk9o8cMGYoq1PI-39" value="" style="endArrow=none;html=1;rounded=0;" edge="1" parent="WIyWlLk6GJQsqaUBKTNV-1">
          <mxGeometry relative="1" as="geometry">
            <mxPoint x="179" y="441.58" as="sourcePoint" />
            <mxPoint x="210" y="442" as="targetPoint" />
          </mxGeometry>
        </mxCell>
        <mxCell id="VbQ0kaJk9o8cMGYoq1PI-40" value="Doc_number" style="ellipse;whiteSpace=wrap;html=1;align=center;fillColor=none;" vertex="1" parent="WIyWlLk6GJQsqaUBKTNV-1">
          <mxGeometry x="79" y="310" width="100" height="40" as="geometry" />
        </mxCell>
        <mxCell id="VbQ0kaJk9o8cMGYoq1PI-41" value="" style="endArrow=none;html=1;rounded=0;" edge="1" parent="WIyWlLk6GJQsqaUBKTNV-1">
          <mxGeometry relative="1" as="geometry">
            <mxPoint x="179" y="329.65999999999997" as="sourcePoint" />
            <mxPoint x="210" y="330" as="targetPoint" />
          </mxGeometry>
        </mxCell>
        <mxCell id="VbQ0kaJk9o8cMGYoq1PI-42" value="Gender" style="ellipse;whiteSpace=wrap;html=1;align=center;" vertex="1" parent="WIyWlLk6GJQsqaUBKTNV-1">
          <mxGeometry x="79" y="250" width="100" height="40" as="geometry" />
        </mxCell>
        <mxCell id="VbQ0kaJk9o8cMGYoq1PI-43" value="" style="endArrow=none;html=1;rounded=0;" edge="1" parent="WIyWlLk6GJQsqaUBKTNV-1">
          <mxGeometry relative="1" as="geometry">
            <mxPoint x="179" y="269.65999999999997" as="sourcePoint" />
            <mxPoint x="210" y="270" as="targetPoint" />
          </mxGeometry>
        </mxCell>
        <mxCell id="VbQ0kaJk9o8cMGYoq1PI-44" value="Marital_Status" style="ellipse;whiteSpace=wrap;html=1;align=center;fillColor=none;" vertex="1" parent="WIyWlLk6GJQsqaUBKTNV-1">
          <mxGeometry x="79" y="484.5" width="100" height="40" as="geometry" />
        </mxCell>
        <mxCell id="VbQ0kaJk9o8cMGYoq1PI-45" value="" style="endArrow=none;html=1;rounded=0;" edge="1" parent="WIyWlLk6GJQsqaUBKTNV-1">
          <mxGeometry relative="1" as="geometry">
            <mxPoint x="179" y="504.15999999999997" as="sourcePoint" />
            <mxPoint x="210" y="504.5" as="targetPoint" />
          </mxGeometry>
        </mxCell>
        <mxCell id="VbQ0kaJk9o8cMGYoq1PI-47" value="Adress" style="ellipse;whiteSpace=wrap;html=1;align=center;fillColor=none;" vertex="1" parent="WIyWlLk6GJQsqaUBKTNV-1">
          <mxGeometry x="79" y="544.5" width="100" height="40" as="geometry" />
        </mxCell>
        <mxCell id="VbQ0kaJk9o8cMGYoq1PI-48" value="" style="endArrow=none;html=1;rounded=0;" edge="1" parent="WIyWlLk6GJQsqaUBKTNV-1">
          <mxGeometry relative="1" as="geometry">
            <mxPoint x="179" y="564.5" as="sourcePoint" />
            <mxPoint x="210" y="564.5" as="targetPoint" />
          </mxGeometry>
        </mxCell>
        <mxCell id="VbQ0kaJk9o8cMGYoq1PI-52" value="Created_at" style="ellipse;whiteSpace=wrap;html=1;align=center;fillColor=none;" vertex="1" parent="WIyWlLk6GJQsqaUBKTNV-1">
          <mxGeometry x="79" y="200" width="100" height="40" as="geometry" />
        </mxCell>
        <mxCell id="VbQ0kaJk9o8cMGYoq1PI-53" value="Updated_at" style="ellipse;whiteSpace=wrap;html=1;align=center;fillColor=none;" vertex="1" parent="WIyWlLk6GJQsqaUBKTNV-1">
          <mxGeometry x="79" y="150" width="100" height="40" as="geometry" />
        </mxCell>
        <mxCell id="VbQ0kaJk9o8cMGYoq1PI-56" value="" style="endArrow=none;html=1;rounded=0;" edge="1" parent="WIyWlLk6GJQsqaUBKTNV-1">
          <mxGeometry relative="1" as="geometry">
            <mxPoint x="179" y="169.66" as="sourcePoint" />
            <mxPoint x="210" y="170" as="targetPoint" />
          </mxGeometry>
        </mxCell>
        <mxCell id="VbQ0kaJk9o8cMGYoq1PI-59" value="" style="endArrow=none;html=1;rounded=0;" edge="1" parent="WIyWlLk6GJQsqaUBKTNV-1">
          <mxGeometry relative="1" as="geometry">
            <mxPoint x="210" y="620" as="sourcePoint" />
            <mxPoint x="179" y="619.66" as="targetPoint" />
          </mxGeometry>
        </mxCell>
        <mxCell id="VbQ0kaJk9o8cMGYoq1PI-60" value="Emaiil" style="ellipse;whiteSpace=wrap;html=1;align=center;fillColor=none;" vertex="1" parent="WIyWlLk6GJQsqaUBKTNV-1">
          <mxGeometry x="78.99999999999989" y="600" width="100" height="40" as="geometry" />
        </mxCell>
        <mxCell id="VbQ0kaJk9o8cMGYoq1PI-61" value="Compra" style="shape=rhombus;perimeter=rhombusPerimeter;whiteSpace=wrap;html=1;align=center;fillColor=none;" vertex="1" parent="WIyWlLk6GJQsqaUBKTNV-1">
          <mxGeometry x="400" y="355" width="120" height="60" as="geometry" />
        </mxCell>
        <mxCell id="VbQ0kaJk9o8cMGYoq1PI-70" value="" style="endArrow=none;html=1;rounded=0;exitX=1;exitY=0.5;exitDx=0;exitDy=0;" edge="1" parent="WIyWlLk6GJQsqaUBKTNV-1" source="VbQ0kaJk9o8cMGYoq1PI-61">
          <mxGeometry relative="1" as="geometry">
            <mxPoint x="429" y="384.76" as="sourcePoint" />
            <mxPoint x="560" y="385" as="targetPoint" />
          </mxGeometry>
        </mxCell>
        <mxCell id="VbQ0kaJk9o8cMGYoq1PI-71" value="N" style="resizable=0;html=1;whiteSpace=wrap;align=right;verticalAlign=bottom;" connectable="0" vertex="1" parent="VbQ0kaJk9o8cMGYoq1PI-70">
          <mxGeometry x="1" relative="1" as="geometry" />
        </mxCell>
        <mxCell id="VbQ0kaJk9o8cMGYoq1PI-80" value="" style="endArrow=none;html=1;rounded=0;entryX=0;entryY=0.5;entryDx=0;entryDy=0;exitX=1;exitY=0.5;exitDx=0;exitDy=0;" edge="1" parent="WIyWlLk6GJQsqaUBKTNV-1" source="VbQ0kaJk9o8cMGYoq1PI-14" target="VbQ0kaJk9o8cMGYoq1PI-61">
          <mxGeometry relative="1" as="geometry">
            <mxPoint x="360" y="380" as="sourcePoint" />
            <mxPoint x="520" y="380" as="targetPoint" />
          </mxGeometry>
        </mxCell>
        <mxCell id="VbQ0kaJk9o8cMGYoq1PI-81" value="1" style="resizable=0;html=1;whiteSpace=wrap;align=left;verticalAlign=bottom;" connectable="0" vertex="1" parent="VbQ0kaJk9o8cMGYoq1PI-80">
          <mxGeometry x="-1" relative="1" as="geometry" />
        </mxCell>
        <mxCell id="VbQ0kaJk9o8cMGYoq1PI-84" value="ID_Transition" style="ellipse;whiteSpace=wrap;html=1;align=center;fillColor=none;" vertex="1" parent="WIyWlLk6GJQsqaUBKTNV-1">
          <mxGeometry x="414" y="290" width="100" height="40" as="geometry" />
        </mxCell>
        <mxCell id="VbQ0kaJk9o8cMGYoq1PI-85" value="Price" style="ellipse;whiteSpace=wrap;html=1;align=center;fillColor=none;" vertex="1" parent="WIyWlLk6GJQsqaUBKTNV-1">
          <mxGeometry x="530" y="290" width="100" height="40" as="geometry" />
        </mxCell>
        <mxCell id="VbQ0kaJk9o8cMGYoq1PI-86" value="payment_method" style="ellipse;whiteSpace=wrap;html=1;align=center;fillColor=none;" vertex="1" parent="WIyWlLk6GJQsqaUBKTNV-1">
          <mxGeometry x="300" y="290" width="100" height="40" as="geometry" />
        </mxCell>
      </root>
    </mxGraphModel>
  </diagram>
</mxfile>
